<svg xmlns="http://www.w3.org/2000/svg" width="119.5" height="45.955" viewBox="0 0 119.5 45.955">
  <g id="Group_14967" data-name="Group 14967" transform="translate(-114 -43)">
    <g id="OFI_logo-Color" transform="translate(114 43)">
      <g id="Group_487" data-name="Group 487" transform="translate(0 7.83)">
        <path id="Path_28" data-name="Path 28" d="M288.8,394.46a1.831,1.831,0,0,1,.056-.2,3.44,3.44,0,0,1,1.422-1.673c.121-.072.293-.2.395-.05a.54.54,0,0,1-.033.427,2.742,2.742,0,0,1-1.618,1.453,1.89,1.89,0,0,1-.222.045m-6.544-.714c.07.05.143.1.213.143-.21.692-2.017,2.142-2.55,2.049-.071-.618,1.734-2.754,2.441-2.824a2.245,2.245,0,0,1-.158.295.207.207,0,0,0,.054.337m10.07,1.475a.32.32,0,0,0-.038-.393.3.3,0,0,0-.391-.045.921.921,0,0,0-.258.239,3.164,3.164,0,0,1-.844.854,1.585,1.585,0,0,1-1.533.233.712.712,0,0,1-.458-.661c.105-.026.2-.04.281-.071a4.082,4.082,0,0,0,2.182-1.943,2.6,2.6,0,0,0,.275-.8c.127-.709-.306-1.153-.972-1.015a1.956,1.956,0,0,0-.552.193,4.257,4.257,0,0,0-2.047,2.6,2.02,2.02,0,0,1-.163.43c-.112.194-.23.2-.408.084-.4-.257-.8-.5-1.194-.756-.155-.1-.311-.194-.51-.318a.921.921,0,0,0,.112-.068c.608-.532,1.207-1.076,1.826-1.594a.781.781,0,0,0,.261-.757c-.03-.268-.192-.368-.414-.238a3.306,3.306,0,0,0-.517.394c-.356.316-.7.651-1.056.963a7.025,7.025,0,0,1-.673.5c-.146.1-.2.06-.192-.121a7.073,7.073,0,0,1,.058-.775c.1-.633.222-1.261.325-1.894a1.41,1.41,0,0,0-.085-.893c-.068-.131-.163-.22-.311-.117a1.272,1.272,0,0,0-.611.9c-.039.315-.059.632-.092.948-.067.632-.163,1.261-.2,1.895-.051.848-.058,1.7-.085,2.549,0,.07-.01.141-.018.251-.045-.062-.06-.082-.074-.1a2.128,2.128,0,0,1-.286-1.45,2.893,2.893,0,0,0,0-.842,1.353,1.353,0,0,1-.034-.554.66.66,0,0,0-.684-.828,1.635,1.635,0,0,0-.615.164,8.381,8.381,0,0,0-3.328,3.134c-.038.06-.066.128-.123.241-.017-.1-.03-.144-.031-.187-.027-.765-.047-1.53-.08-2.294a5.54,5.54,0,0,0-.087-.907c-.1-.448-.409-.6-.774-.354a3.459,3.459,0,0,0-.706.638,10.879,10.879,0,0,0-1.465,2.435c-.132.279-.259.56-.4.871a1.32,1.32,0,0,1-.038-.18c-.027-.583-.048-1.167-.077-1.75a4.935,4.935,0,0,0-.221-1.512c-.162-.429-.481-.511-.782-.177a2.325,2.325,0,0,0-.444.682c-.268.68-.5,1.378-.743,2.068a1.8,1.8,0,0,1-.115.285c-.071.126-.167.12-.208-.018a1.72,1.72,0,0,1-.078-.456c-.008-.591,0-1.181,0-1.772a.72.72,0,0,0-.254-.616.268.268,0,0,0-.181-.059.683.683,0,0,0-.589.669c0,.725.008,1.453.061,2.176a8.59,8.59,0,0,0,.241,1.492.657.657,0,0,0,1.158.31,1.508,1.508,0,0,0,.353-.559c.174-.551.306-1.118.454-1.678.036-.137.067-.276.114-.409.019-.053.074-.092.112-.138.036.047.091.087.105.14a2.459,2.459,0,0,1,.073.38c.064.547.1,1.1.194,1.639a2.548,2.548,0,0,0,.333.871c.243.391.65.343.868-.063a1.584,1.584,0,0,0,.073-.157c.148-.37.285-.745.443-1.109.308-.712.62-1.422.948-2.124a2.164,2.164,0,0,1,.375-.522c.129-.141.231-.1.258.1a3.163,3.163,0,0,1,.022.427,13.573,13.573,0,0,0,.263,2.725c.079.372.186.738.294,1.1a.355.355,0,0,0,.347.293.606.606,0,0,0,.626-.6,1.493,1.493,0,0,0-.016-.227,1.316,1.316,0,0,0,1.043-.169c.166-.081.328-.172.486-.269a8.312,8.312,0,0,0,1.621-1.448c.093-.1.194-.186.268-.257.151.4.275.8.447,1.181a.711.711,0,0,0,.84.475c0,.118-.005.228,0,.336a2.96,2.96,0,0,0,.043.443c.037.173.135.331.309.341a.438.438,0,0,0,.466-.243,1.459,1.459,0,0,0,.137-.5c.016-.382-.01-.765-.008-1.148,0-.269.018-.538.03-.828a1.549,1.549,0,0,1,.243.081,11.876,11.876,0,0,1,2.043,1.285c.2.171.409.328.621.48a.334.334,0,0,0,.4.027.2.2,0,0,1,.264.033,1.327,1.327,0,0,0,.921.315,3.42,3.42,0,0,0,2.077-.91,2.712,2.712,0,0,0,.775-1m11.073-6.212a.808.808,0,0,0-.378-.1,2.374,2.374,0,0,0-.344.04q-1.416.095-2.833.184c-.21.013-.42.021-.641.032.021-.219.046-.412.057-.605.018-.327-.107-.543-.332-.593-.253-.057-.437.071-.553.386a1.042,1.042,0,0,0-.05.166c-.042.229-.08.458-.124.709-.1.008-.208.018-.316.025-.609.039-1.219.068-1.827.121a.991.991,0,0,0-.442.158.317.317,0,0,0,0,.545.46.46,0,0,0,.248.11,6.916,6.916,0,0,0,.724-.055c.494-.057.988-.123,1.507-.188-.013.129-.021.211-.031.293q-.194,1.543-.39,3.086c-.094.739-.184,1.479-.294,2.215a1.994,1.994,0,0,1-.2.581c-.108.217-.268.21-.393.007a1.093,1.093,0,0,1-.069-.137,5.177,5.177,0,0,1-.358-1.738.6.6,0,0,1,.235-.552.486.486,0,0,0,.175-.332,1.573,1.573,0,0,0-.631-1.217.351.351,0,0,0-.583.183,2.059,2.059,0,0,0-.117.566,10.451,10.451,0,0,0,.115,2.347,3.778,3.778,0,0,0,.578,1.6c.408.588.872.59,1.2-.044a6.117,6.117,0,0,0,.508-1.367c.158-.648.241-1.317.356-1.977a3.394,3.394,0,0,0-.011.382,16.483,16.483,0,0,0,.515,4.136,5.325,5.325,0,0,0,.359.868.3.3,0,0,0,.393.194.457.457,0,0,0,.3-.438,1.747,1.747,0,0,0-.065-.4c-.132-.486-.289-.964-.4-1.454a13.121,13.121,0,0,1-.272-2.783c-.025-1.344.013-2.687.117-4.046.075,0,.129-.009.184-.011,1.055-.035,2.111-.061,3.166-.111a3.047,3.047,0,0,0,.857-.16.345.345,0,0,0,.054-.626m-7.934,1.75a.441.441,0,0,0,.214.538,2.77,2.77,0,0,0,.415.175c.314-.03.516-.228.476-.489A.733.733,0,0,0,296,390.4a.537.537,0,0,0-.534.355m10.443,1.171a.509.509,0,0,0-.629-.477,1.567,1.567,0,0,0-1,.7c-.1.155-.185.319-.29.5.021-.28-.048-.424-.225-.513a.423.423,0,0,0-.523.094.9.9,0,0,0-.212.355,4.125,4.125,0,0,0-.172,1.007c.019.972.077,1.945.138,2.915.026.41.245.553.619.456a.581.581,0,0,0,.444-.642c-.015-.46-.045-.921-.035-1.38a4.542,4.542,0,0,1,.28-1.52,1.641,1.641,0,0,1,1.026-1.058c.139-.047.275-.1.414-.153a.248.248,0,0,0,.165-.288m5.945,1.845c.055.039.114.073.17.109a4.54,4.54,0,0,1-2.54,2.059c-.122-.535,1.647-2.7,2.432-2.839-.058.119-.093.2-.14.284-.121.206-.115.249.077.387m-5.887.688c.049-.137.075-.237.118-.328a3.462,3.462,0,0,1,1.37-1.549c.122-.071.293-.2.4-.052a.536.536,0,0,1-.031.427,2.744,2.744,0,0,1-1.635,1.461,1.807,1.807,0,0,1-.217.041m7.686,1.957a.423.423,0,0,0-.042-.536,2.352,2.352,0,0,1-.384-1.73,2.266,2.266,0,0,0-.007-.763,1.161,1.161,0,0,1-.036-.516.661.661,0,0,0-.675-.851,1.644,1.644,0,0,0-.615.163,8.2,8.2,0,0,0-3.214,2.954,2.351,2.351,0,0,1-1.192.975,1.266,1.266,0,0,1-1.181-.082.673.673,0,0,1-.322-.588,2.552,2.552,0,0,0,.267-.065,4.091,4.091,0,0,0,2.206-1.968,2.563,2.563,0,0,0,.261-.761c.134-.718-.3-1.169-.974-1.029a1.936,1.936,0,0,0-.552.194,4.2,4.2,0,0,0-2.043,2.62.853.853,0,0,1-.49.65c-.166.064-.149.187-.065.307a.435.435,0,0,0,.181.156.681.681,0,0,1,.383.451,1.53,1.53,0,0,0,1.875,1.078,7.334,7.334,0,0,0,1.139-.455,1.489,1.489,0,0,0,.168-.1,1,1,0,0,0,1.337.394,4.932,4.932,0,0,0,1.586-1.06c.346-.336.68-.686,1.029-1.04.106.338.192.655.306.96a1.2,1.2,0,0,0,.5.67.465.465,0,0,0,.55-.031m1.2-4.612c0-.569.087-1.137.135-1.719-.013-.208-.012-.43-.043-.647-.038-.254-.155-.379-.335-.408a.43.43,0,0,0-.469.294,2.346,2.346,0,0,0-.164.632,28.843,28.843,0,0,0-.018,4.18,13.483,13.483,0,0,1,.025,2.544,1.783,1.783,0,0,0,.037.634.463.463,0,0,0,.254.292.556.556,0,0,0,.724-.574c-.035-.582-.075-1.165-.09-1.748-.029-1.16-.061-2.321-.055-3.481" transform="translate(-267.008 -360.932)" fill="#f78c2a"/>
        <path id="Path_29" data-name="Path 29" d="M279.532,335.54a12.423,12.423,0,0,0,8.006-2.914,12.229,12.229,0,0,0-15.936.064,12.422,12.422,0,0,0,7.929,2.849" transform="translate(-267.008 -310.326)" fill="#f78c2a"/>
        <path id="Path_30" data-name="Path 30" d="M244.321,199.474a6.709,6.709,0,1,1,9.1-.037,14.816,14.816,0,0,1,5.2,2.942,12.523,12.523,0,1,0-19.49.078,14.822,14.822,0,0,1,5.185-2.983" transform="translate(-236.327 -181.895)" fill="#860363"/>
      </g>
      <rect id="Rectangle_132" data-name="Rectangle 132" width="5.713" height="23.235" transform="translate(42.288 8.732)" fill="#860363"/>
      <g id="Group_488" data-name="Group 488" transform="translate(24.744)">
        <path id="Path_31" data-name="Path 31" d="M436.271,122.18a5.732,5.732,0,0,0-5.713,5.75v2.982h-4.268V135.7h4.268v18.45h5.712V135.7h4.951v-4.786h-4.951v-1.733a1.244,1.244,0,0,1,1.24-1.248h4.578v-5.75Z" transform="translate(-426.291 -122.18)" fill="#860363"/>
      </g>
      <rect id="Rectangle_133" data-name="Rectangle 133" width="5.713" height="5.75" transform="translate(42.288)" fill="#f78c2a"/>
    </g>
    <path id="Path_14791" data-name="Path 14791" d="M1.875-17.5H7.8a9.037,9.037,0,0,1,4.775,1.212A7.946,7.946,0,0,1,15.6-13.075,9.345,9.345,0,0,1,16.625-8.75,9.345,9.345,0,0,1,15.6-4.425a7.946,7.946,0,0,1-3.025,3.213A9.037,9.037,0,0,1,7.8,0H1.875ZM7.55-2.575a6.331,6.331,0,0,0,3.425-.862A5.323,5.323,0,0,0,13.012-5.7a7.039,7.039,0,0,0,.663-3.05,7.039,7.039,0,0,0-.663-3.05,5.323,5.323,0,0,0-2.037-2.262,6.331,6.331,0,0,0-3.425-.863H4.75v12.35ZM18.6-11.65h2.7V0H18.6Zm5.675,0H27V-9.4a2.993,2.993,0,0,1,1.175-1.788A3.284,3.284,0,0,1,30.1-11.8a4.607,4.607,0,0,1,1.075.1v2.5A9.492,9.492,0,0,0,30.1-9.25a2.721,2.721,0,0,0-2.275,1.063A4.863,4.863,0,0,0,27-5.15V0H24.275Zm18.8,5.225q0,.525-.075,1.5H34.35a2.789,2.789,0,0,0,.9,2.112,3.468,3.468,0,0,0,2.35.738A3.521,3.521,0,0,0,39.225-2.4a2.265,2.265,0,0,0,.975-1h2.75A3.982,3.982,0,0,1,41.188-.738,6.113,6.113,0,0,1,37.6.3a5.778,5.778,0,0,1-4.35-1.65,6.155,6.155,0,0,1-1.6-4.475,6.9,6.9,0,0,1,.725-3.238,5.125,5.125,0,0,1,2.05-2.138,6.135,6.135,0,0,1,3.075-.75,5.907,5.907,0,0,1,2.912.7A4.963,4.963,0,0,1,42.375-9.3,5.784,5.784,0,0,1,43.075-6.425ZM40.4-7a2.8,2.8,0,0,0-.788-2.075A3.015,3.015,0,0,0,37.45-9.8a3.154,3.154,0,0,0-2.25.775A2.73,2.73,0,0,0,34.35-7ZM50.35.3a5.961,5.961,0,0,1-3.087-.775A5.149,5.149,0,0,1,45.25-2.638a6.983,6.983,0,0,1-.7-3.187,6.983,6.983,0,0,1,.7-3.187,5.149,5.149,0,0,1,2.013-2.163,5.961,5.961,0,0,1,3.087-.775,5.857,5.857,0,0,1,3.863,1.212A4.617,4.617,0,0,1,55.875-7.5H53.15a2.469,2.469,0,0,0-.9-1.525,3.142,3.142,0,0,0-1.9-.5,2.8,2.8,0,0,0-2.263.963,4.128,4.128,0,0,0-.812,2.738,4.128,4.128,0,0,0,.813,2.737,2.8,2.8,0,0,0,2.263.962q2.325,0,2.8-1.9h2.725a4.443,4.443,0,0,1-1.662,3.15A5.983,5.983,0,0,1,50.35.3ZM63.125-2.3A7.881,7.881,0,0,0,64.5-2.4V0a11.827,11.827,0,0,1-2.025.15,4.594,4.594,0,0,1-2.662-.763Q58.7-1.375,58.7-3.95V-9.375H56.725V-11.65H58.7v-3.525h2.725v3.525H64.1v2.275H61.425v4.8a4.31,4.31,0,0,0,.188,1.462,1.092,1.092,0,0,0,.55.65A2.383,2.383,0,0,0,63.125-2.3Z" transform="translate(169 75)" fill="#860663"/>
    <rect id="Rectangle_8080" data-name="Rectangle 8080" width="3.71" height="3.734" transform="translate(187.1 58.025)" fill="#f78c2a"/>
  </g>
</svg>
