<svg id="Component_70_1" data-name="Component 70 – 1" xmlns="http://www.w3.org/2000/svg" xmlns:xlink="http://www.w3.org/1999/xlink" width="47" height="47" viewBox="0 0 47 47">
  <defs>
    <clipPath id="clip-path">
      <rect id="Rectangle_7706" data-name="Rectangle 7706" width="20.139" height="22.977" fill="#4a4949"/>
    </clipPath>
  </defs>
  <circle id="Ellipse_260" data-name="Ellipse 260" cx="23.5" cy="23.5" r="23.5" fill="#fff"/>
  <g id="Group_14777" data-name="Group 14777" transform="translate(-106.813)">
    <g id="Group_13992" data-name="Group 13992">
      <g id="Group_13906" data-name="Group 13906">
        <g id="Group_13898" data-name="Group 13898" transform="translate(107)">
          <g id="Group_13856" data-name="Group 13856" transform="translate(12.463 12.309)">
            <g id="Group_13852" data-name="Group 13852" clip-path="url(#clip-path)">
              <path id="Path_13616" data-name="Path 13616" d="M10.076,123.245q-4.225,0-8.451,0A1.544,1.544,0,0,1,0,121.579a6.669,6.669,0,0,1,.074-.921,7.72,7.72,0,0,1,4.741-6.173,6.771,6.771,0,0,1,2.668-.582c1.712-.025,3.425-.046,5.136,0a7.762,7.762,0,0,1,7.414,6.641c.047.334.079.672.1,1.009a1.57,1.57,0,0,1-1.608,1.69q-4.225.009-8.451,0m0-1.47H18.2c.433,0,.453-.02.427-.458-.008-.139-.031-.277-.05-.414a6.131,6.131,0,0,0-2.942-4.616,6.693,6.693,0,0,0-3.505-.924c-1.333-.017-2.667-.011-4,0a8.1,8.1,0,0,0-2.094.267,6.159,6.159,0,0,0-4.525,5.706c-.024.427,0,.44.419.44h8.15" transform="translate(0 -100.27)" fill="#4a4949"/>
              <path id="Path_13617" data-name="Path 13617" d="M41.731,11.5a5.7,5.7,0,0,1-5.754-5.771A5.693,5.693,0,0,1,41.769,0,5.632,5.632,0,0,1,47.5,5.755,5.636,5.636,0,0,1,41.731,11.5M37.482,5.763a4.265,4.265,0,1,0,8.53-.038,4.265,4.265,0,0,0-8.53.038" transform="translate(-31.678 0)" fill="#4a4949"/>
            </g>
          </g>
        </g>
      </g>
    </g>
  </g>
</svg>
