<?xml version="1.0" encoding="UTF-8" standalone="no"?>
<!DOCTYPE svg PUBLIC "-//W3C//DTD SVG 1.1//EN"
 "http://www.w3.org/Graphics/SVG/1.1/DTD/svg11.dtd">
<!-- Generated by graphviz version 2.47.0 (20210316.0004)
 -->
<!-- Title: dependencies Pages: 1 -->
<svg width="792pt" height="349pt"
 viewBox="0.00 0.00 792.00 349.00" xmlns="http://www.w3.org/2000/svg" xmlns:xlink="http://www.w3.org/1999/xlink">
<g id="graph0" class="graph" transform="scale(1 1) rotate(0) translate(4 345)">
<title>dependencies</title>
<polygon fill="white" stroke="transparent" points="-4,4 -4,-345 788,-345 788,4 -4,4"/>
<text text-anchor="start" x="371.01" y="-42.4" font-family="Times-12" font-weight="bold" font-size="14.00">Legend</text>
<polygon fill="#ffffb3" stroke="transparent" points="158,-10 158,-30 178,-30 178,-10 158,-10"/>
<text text-anchor="start" x="181.63" y="-15.4" font-family="Times-12" font-size="14.00"> &#160;Declarations</text>
<polygon fill="#8dd3c7" stroke="transparent" points="271,-10 271,-30 291,-30 291,-10 271,-10"/>
<text text-anchor="start" x="294.73" y="-15.4" font-family="Times-12" font-size="14.00"> &#160;Module</text>
<polygon fill="#80b1d3" stroke="transparent" points="357,-10 357,-30 377,-30 377,-10 357,-10"/>
<text text-anchor="start" x="380.78" y="-15.4" font-family="Times-12" font-size="14.00"> &#160;Bootstrap</text>
<polygon fill="#fdb462" stroke="transparent" points="454,-10 454,-30 474,-30 474,-10 454,-10"/>
<text text-anchor="start" x="477.67" y="-15.4" font-family="Times-12" font-size="14.00"> &#160;Providers</text>
<polygon fill="#fb8072" stroke="transparent" points="550,-10 550,-30 570,-30 570,-10 550,-10"/>
<text text-anchor="start" x="573.73" y="-15.4" font-family="Times-12" font-size="14.00"> &#160;Exports</text>
<g id="clust1" class="cluster">
<title>cluster_AppModule</title>
<polygon fill="none" stroke="black" stroke-dasharray="1,5" points="8,-70 8,-333 776,-333 776,-70 8,-70"/>
</g>
<g id="clust2" class="cluster">
<title>cluster_AppModule_declarations</title>
<polygon fill="none" stroke="black" points="168,-143 168,-195 768,-195 768,-143 168,-143"/>
</g>
<g id="clust3" class="cluster">
<title>cluster_AppModule_AppComponent_providers</title>
<polygon fill="none" stroke="black" points="604,-78 604,-130 768,-130 768,-78 604,-78"/>
</g>
<g id="clust7" class="cluster">
<title>cluster_AppModule_imports</title>
<polygon fill="none" stroke="black" points="16,-143 16,-195 160,-195 160,-143 16,-143"/>
</g>
<g id="clust9" class="cluster">
<title>cluster_AppModule_bootstrap</title>
<polygon fill="none" stroke="black" points="334,-273 334,-325 458,-325 458,-273 334,-273"/>
</g>
<!-- AppComponent -->
<g id="node1" class="node">
<title>AppComponent</title>
<polygon fill="#ffffb3" stroke="black" points="759.94,-187 654.06,-187 654.06,-151 759.94,-151 759.94,-187"/>
<text text-anchor="middle" x="707" y="-164.8" font-family="Times,serif" font-size="14.00">AppComponent</text>
</g>
<!-- AppModule -->
<g id="node5" class="node">
<title>AppModule</title>
<polygon fill="#8dd3c7" stroke="black" points="437.66,-252 434.66,-256 413.66,-256 410.66,-252 354.34,-252 354.34,-216 437.66,-216 437.66,-252"/>
<text text-anchor="middle" x="396" y="-229.8" font-family="Times,serif" font-size="14.00">AppModule</text>
</g>
<!-- AppComponent&#45;&gt;AppModule -->
<g id="edge1" class="edge">
<title>AppComponent&#45;&gt;AppModule</title>
<path fill="none" stroke="black" d="M707,-187.28C707,-208.32 707,-240 707,-240 707,-240 447.94,-240 447.94,-240"/>
<polygon fill="black" stroke="black" points="447.94,-236.5 437.94,-240 447.94,-243.5 447.94,-236.5"/>
</g>
<!-- InputNumberComponent -->
<g id="node2" class="node">
<title>InputNumberComponent</title>
<polygon fill="#ffffb3" stroke="black" points="636.26,-187 479.74,-187 479.74,-151 636.26,-151 636.26,-187"/>
<text text-anchor="middle" x="558" y="-164.8" font-family="Times,serif" font-size="14.00">InputNumberComponent</text>
</g>
<!-- InputNumberComponent&#45;&gt;AppModule -->
<g id="edge3" class="edge">
<title>InputNumberComponent&#45;&gt;AppModule</title>
<path fill="none" stroke="black" d="M558,-187.02C558,-204.37 558,-228 558,-228 558,-228 447.72,-228 447.72,-228"/>
<polygon fill="black" stroke="black" points="447.72,-224.5 437.72,-228 447.72,-231.5 447.72,-224.5"/>
</g>
<!-- MyChildComponent -->
<g id="node3" class="node">
<title>MyChildComponent</title>
<polygon fill="#ffffb3" stroke="black" points="461.89,-187 330.11,-187 330.11,-151 461.89,-151 461.89,-187"/>
<text text-anchor="middle" x="396" y="-164.8" font-family="Times,serif" font-size="14.00">MyChildComponent</text>
</g>
<!-- MyChildComponent&#45;&gt;AppModule -->
<g id="edge4" class="edge">
<title>MyChildComponent&#45;&gt;AppModule</title>
<path fill="none" stroke="black" d="M396,-187.11C396,-187.11 396,-205.99 396,-205.99"/>
<polygon fill="black" stroke="black" points="392.5,-205.99 396,-215.99 399.5,-205.99 392.5,-205.99"/>
</g>
<!-- OperatorsComponent -->
<g id="node4" class="node">
<title>OperatorsComponent</title>
<polygon fill="#ffffb3" stroke="black" points="312.03,-187 175.97,-187 175.97,-151 312.03,-151 312.03,-187"/>
<text text-anchor="middle" x="244" y="-164.8" font-family="Times,serif" font-size="14.00">OperatorsComponent</text>
</g>
<!-- OperatorsComponent&#45;&gt;AppModule -->
<g id="edge5" class="edge">
<title>OperatorsComponent&#45;&gt;AppModule</title>
<path fill="none" stroke="black" d="M244,-187.02C244,-204.37 244,-228 244,-228 244,-228 344.06,-228 344.06,-228"/>
<polygon fill="black" stroke="black" points="344.06,-231.5 354.06,-228 344.06,-224.5 344.06,-231.5"/>
</g>
<!-- AppComponent  -->
<g id="node8" class="node">
<title>AppComponent </title>
<polygon fill="#80b1d3" stroke="black" points="450.44,-317 341.56,-317 341.56,-281 450.44,-281 450.44,-317"/>
<text text-anchor="middle" x="396" y="-294.8" font-family="Times,serif" font-size="14.00">AppComponent </text>
</g>
<!-- AppModule&#45;&gt;AppComponent  -->
<g id="edge7" class="edge">
<title>AppModule&#45;&gt;AppComponent </title>
<path fill="none" stroke="black" stroke-dasharray="1,5" d="M396,-252.11C396,-252.11 396,-270.99 396,-270.99"/>
<polygon fill="black" stroke="black" points="392.5,-270.99 396,-280.99 399.5,-270.99 392.5,-270.99"/>
</g>
<!-- MessageService -->
<g id="node6" class="node">
<title>MessageService</title>
<ellipse fill="#fdb462" stroke="black" cx="686" cy="-104" rx="73.55" ry="18"/>
<text text-anchor="middle" x="686" y="-99.8" font-family="Times,serif" font-size="14.00">MessageService</text>
</g>
<!-- MessageService&#45;&gt;AppComponent -->
<g id="edge2" class="edge">
<title>MessageService&#45;&gt;AppComponent</title>
<path fill="none" stroke="black" d="M707,-121.42C707,-121.42 707,-140.62 707,-140.62"/>
<polygon fill="black" stroke="black" points="703.5,-140.62 707,-150.62 710.5,-140.62 703.5,-140.62"/>
</g>
<!-- AppRoutingModule -->
<g id="node7" class="node">
<title>AppRoutingModule</title>
<polygon fill="#8dd3c7" stroke="black" points="152.27,-187 149.27,-191 128.27,-191 125.27,-187 23.73,-187 23.73,-151 152.27,-151 152.27,-187"/>
<text text-anchor="middle" x="88" y="-164.8" font-family="Times,serif" font-size="14.00">AppRoutingModule</text>
</g>
<!-- AppRoutingModule&#45;&gt;AppModule -->
<g id="edge6" class="edge">
<title>AppRoutingModule&#45;&gt;AppModule</title>
<path fill="none" stroke="black" d="M88,-187.28C88,-208.32 88,-240 88,-240 88,-240 344.14,-240 344.14,-240"/>
<polygon fill="black" stroke="black" points="344.14,-243.5 354.14,-240 344.14,-236.5 344.14,-243.5"/>
</g>
</g>
</svg>
